<svg height="31" viewBox="0 0 31 31" width="31" xmlns="http://www.w3.org/2000/svg"><g fill="none" fill-rule="evenodd"><path d="m29.7503 15.25c0 8.008-6.492 14.5-14.5 14.5-8.009 0-14.5-6.492-14.5-14.5s6.491-14.5 14.5-14.5c8.008 0 14.5 6.492 14.5 14.5z" stroke="#072b31" stroke-width="1.5"/><path d="m19.1732 1.2915c-.138.101-.219.16-.219.16l-2.539 1.673s-.57-.31-1.183-.31c-.356 0-.726.104-1.008.434l-.767.896.06.925-.508.598-1.037.153.356-1.307-.914-.136-.944 1.081 1.284.418.149.627-.499.946-.341.073-1.177-.16c-.03.149-.491 1.531-.401 1.561.088.03.747.209.747.209l1.014-.269.359-.866 1.117-.241.257-.207 1.016 1.195.358.687.591-.475s-1.627-1.385-1.184-1.385c.092 0 .272.059.575.202.413.197.71.261.922.261.395 0 .501-.219.537-.219.027 0 .013.126.053.57.089 1.004-.606 1.525-.427 1.525.061 0 .221-.06.546-.181l1.284-.478 1.136.659v.954s-.135.173-.672.173c-.269 0-.639-.043-1.142-.173-.623-.16-.967-.345-1.128-.345-.035 0-.061.008-.08.027-.089.158.102.898-.359.898-.134 0-.324-.063-.592-.221-1.314-.777-1.285-.06-1.314-.777l-.03-.717-1.553-.119-1.763.239-.852.687-1.329.887-.657 1.263.508 4.516 4.152 2.954 1.076-.271.806 2.3-.448.896 1.215 1.493.906 1.106 1.442-.12 2.888-1.972 1.554-4.39s2.3-3.406 2.21-3.406c-.089 0-2.957-.268-2.957-.268l-1.971-3.764s.01-.088.077-.088c.04 0 .1.032.191.133.739.828 2.382 2.92 2.45 2.942.001.001.002.001.003.001.133 0 3.283-2.002 3.283-2.002s-2.629-.896-2.658-.986c-.025-.072-1.18-.939-.747-.939.107 0 .312.053.657.185 1.344.515 1.536.595 1.556.605.021-.002.86-.05 1.344-.05.164 0 .288.005.325.02.15.06 1.762.79 1.762.79l.569 1.629s.354 1.989.628 1.989c.124 0 .23-.402.282-1.571l.165-3.763.918.292c-1.45-4.673-5.201-8.33-9.928-9.656m-7.614 9.827.132.009c.265.966 1.033 1.161 1.531 1.184.001 0 .129.026.428.203.497.294.927.43 1.355.43.119 0 .834-.025 1.334-.592.226.054.438.096.64.126l1.96 3.742.378.721.81.076c.181.017.351.033.511.048-.282.425-.583.872-.867 1.293l-.108.159-.063.18-1.39 3.929-2.156 1.472-.264.022-.402-.493-.605-.742.015-.03.284-.567-.21-.6-.806-2.3-.454-1.292-1.328.334-.404.102-3.041-2.164-.382-3.395.269-.516 1.008-.674.056-.037.052-.042.526-.425zm7.865-8.181c3.181 1.074 5.782 3.307 7.322 6.23l-.061 1.422-.009.197c-.619-.279-1.224-.551-1.342-.598-.268-.107-.516-.127-.882-.127-.328 0-.785.019-1.094.034-.239-.093-.625-.242-1.269-.49-.527-.202-.874-.284-1.194-.284-.381 0-.733.124-1.009.342v-.617l-.748-.434-1.135-.658-.612-.355-.103.038c-.211-1.306-1.439-1.322-1.494-1.322-.184 0-.426.034-.681.163-.038-.016-.084-.035-.135-.06-.174-.083-.328-.148-.469-.2l.15-.177.394-.462-.039-.606-.021-.317.29-.339c.146.015.335.083.417.125l.79.428.75-.494z" fill="#072b31"/></g></svg>