<svg enable-background="new 0 0 130 60" height="60" viewBox="0 0 130 60" width="130" xmlns="http://www.w3.org/2000/svg"><g fill="#092a30"><path d="m9.851 11.1c10.422-10.422 27.379-10.422 37.801 0s10.422 27.38 0 37.802-27.379 10.422-37.801 0c-10.424-10.423-10.424-27.381 0-37.802m8.589 1.145c-7.736 7.737-7.736 20.327 0 28.064 7.738 7.738 20.328 7.738 28.064.001 7.738-7.738 7.738-20.328 0-28.065-7.735-7.737-20.325-7.737-28.064 0"/><path d="m57.823 4.08 19.227 38.896 14.359-33.338h1.52l17.33 33.322 15.992-38.88h1.715l-18.112 51.826-1.525.015-16.16-43.668-16.16 43.668-1.524-.011-18.382-51.83z"/></g></svg>