<svg enable-background="new 0 0 130 60" height="60" viewBox="0 0 130 60" width="130" xmlns="http://www.w3.org/2000/svg"><g fill="#092a30"><path d="m115.937 4.08-7.127 49.181-11.504-43.623h-10.53l-11.767 43.608-6.862-49.166h-12.037l18.112 51.84h1.525l16.16-43.667 16.16 43.667h1.524l18.381-51.84z"/><path d="m28.757 3.271c14.738 0 26.73 11.99 26.73 26.729s-11.992 26.73-26.73 26.73c-14.74 0-26.73-11.991-26.73-26.73s11.99-26.729 26.73-26.729m0 51.839c10.941 0 19.844-8.902 19.844-19.845s-8.902-19.846-19.844-19.846-19.846 8.903-19.846 19.847c0 10.942 8.904 19.844 19.846 19.844"/></g></svg>