<svg enable-background="new 0 0 130 60" height="60" viewBox="0 0 130 60" width="130" xmlns="http://www.w3.org/2000/svg"><g fill="#092a30"><path d="m28.757 56.721c-14.74 0-26.73-11.99-26.73-26.729s11.99-26.73 26.73-26.73c14.738 0 26.73 11.991 26.73 26.73s-11.992 26.729-26.73 26.729m0-51.84c-10.941 0-19.846 8.902-19.846 19.846 0 10.942 8.904 19.845 19.846 19.845s19.844-8.902 19.844-19.845-8.903-19.846-19.844-19.846"/><path d="m126.253 4.072-17.443 38.894-16.143-33.337h-1.52l-16.138 33.323-17.184-38.88h-1.715l18.112 51.826 1.525.014 16.16-43.667 16.16 43.667 1.524-.01 18.381-51.83z"/></g></svg>