<svg enable-background="new 0 0 130 60" height="60" viewBox="0 0 130 60" width="130" xmlns="http://www.w3.org/2000/svg"><g fill="#092a30"><path d="m68.026 4.08 8.911 45.359 9.834-39.801h8.796l14.58 39.801 10.53-45.359h7.289l-18.112 51.84h-1.523l-16.16-43.668-16.162 43.668h-1.522l-18.383-51.84z"/><path d="m47.653 11.099c10.42 10.422 10.42 27.38 0 37.802-10.424 10.423-27.381 10.422-37.805 0-10.422-10.422-10.422-27.38 0-37.802 10.424-10.422 27.381-10.422 37.805 0m-1.146 8.591c-7.738-7.737-20.328-7.737-28.064 0-7.738 7.737-7.738 20.327 0 28.064 7.736 7.738 20.326 7.738 28.064 0 7.736-7.736 7.736-20.326 0-28.064"/></g></svg>