<svg enable-background="new 0 0 130 60" height="60" viewBox="0 0 130 60" width="130" xmlns="http://www.w3.org/2000/svg"><g fill="#092a30"><path d="m115.729 4.08-9.342 43.74-13.664-38.182h-12.256l-7.291 38.992-15.293-44.55h-1.717l18.111 51.84h1.526l16.16-43.667 16.16 43.667h1.523l18.383-51.84z"/><path d="m55.428 30c0 14.738-11.99 26.729-26.729 26.729-14.74 0-26.73-11.991-26.73-26.729 0-14.739 11.99-26.73 26.73-26.73 14.739 0 26.729 11.991 26.729 26.73m-51.84 0c0 10.941 8.902 19.845 19.846 19.845s19.845-8.904 19.845-19.845c0-10.942-8.904-19.846-19.846-19.846-10.943 0-19.845 8.904-19.845 19.846"/></g></svg>