<svg enable-background="new 0 0 130 60" height="60" viewBox="0 0 130 60" width="130" xmlns="http://www.w3.org/2000/svg"><g fill="#092a30"><path d="m28.758 56.721c-14.739 0-26.73-11.99-26.73-26.729s11.991-26.73 26.73-26.73c14.738 0 26.729 11.991 26.729 26.73s-11.991 26.729-26.729 26.729m0-51.84c-8.263 0-14.985 6.723-14.985 14.985s6.723 14.985 14.985 14.985 14.984-6.723 14.984-14.985-6.721-14.985-14.984-14.985"/><path d="m126.255 4.072-17.443 28.365-16.144-22.808h-1.52l-16.138 22.792-17.183-28.349h-1.716l18.113 51.826 1.524.014 16.16-43.667 16.16 43.667 1.523-.01 18.383-51.83z"/></g></svg>