<svg enable-background="new 0 0 130 60" height="60" viewBox="0 0 130 60" width="130" xmlns="http://www.w3.org/2000/svg"><g fill="#092a30"><path d="m47.652 48.901c-10.422 10.422-27.381 10.422-37.803 0s-10.422-27.38 0-37.803c10.422-10.421 27.381-10.421 37.803 0 10.422 10.423 10.422 27.381 0 37.803m-36.656-36.656c-5.844 5.842-5.844 15.35 0 21.193 5.842 5.843 15.348 5.843 21.191 0 5.842-5.843 5.842-15.351 0-21.193-5.843-5.843-15.349-5.843-21.191 0"/><path d="m126.248 4.081-20.951 28.365-12.637-22.808h-1.519l-19.647 22.793-13.674-28.35h-1.716l18.113 51.826 1.523.014 16.16-43.669 16.162 43.669 1.522-.011 18.383-51.829z"/></g></svg>