<svg enable-background="new 0 0 130 60" height="60" viewBox="0 0 130 60" width="130" xmlns="http://www.w3.org/2000/svg"><g fill="#092a30"><path d="m72.994 4.08 3.937 45.359 9.835-39.801h17.008l6.367 39.801 10.53-45.359h7.29l-18.113 51.84h-1.524l-16.16-43.668-16.16 43.668h-1.523l-18.383-51.84z"/><path d="m47.658 11.099c10.422 10.422 10.423 27.38 0 37.802-10.422 10.422-27.38 10.422-37.802 0s-10.422-27.38 0-37.802 27.38-10.422 37.802 0m-1.145 15.256c-5.899-5.9-15.5-5.9-21.4-.001-5.899 5.9-5.899 15.501.001 21.4 5.899 5.9 15.5 5.9 21.399 0 5.899-5.899 5.899-15.499 0-21.399"/></g></svg>