<svg enable-background="new 0 0 130 60" height="60" viewBox="0 0 130 60" width="130" xmlns="http://www.w3.org/2000/svg"><g fill="#092a30"><path d="m28.765 56.841c-14.8 0-26.841-12.041-26.841-26.841s12.041-26.841 26.841-26.841 26.84 12.041 26.84 26.841-12.041 26.841-26.84 26.841m0-49.615c-12.559 0-22.774 10.216-22.774 22.774s10.215 22.774 22.773 22.774 22.774-10.216 22.774-22.774-10.215-22.774-22.773-22.774"/><path d="m123.311 3.973-14.476 41.481-13.179-35.9h-7.321l-13.442 35.9-14.211-41.481h-4.767l18.188 52.041 1.531.014 16.226-43.848 16.227 43.848 1.531-.011 18.459-52.044z"/></g></svg>