<svg enable-background="new 0 0 130 60" height="60" viewBox="0 0 130 60" width="130" xmlns="http://www.w3.org/2000/svg"><g fill="#092a30"><path d="m9.85 11.1c10.422-10.422 27.381-10.422 37.803 0s10.422 27.38 0 37.802-27.381 10.422-37.803 0-10.422-27.381 0-37.802m15.464 1.145c-5.844 5.843-5.844 15.35 0 21.191 5.842 5.843 15.35 5.843 21.191.001 5.842-5.843 5.842-15.35 0-21.192s-15.349-5.843-21.191 0"/><path d="m57.822 4.08 20.953 28.365 12.635-22.806h1.52l19.646 22.792 13.674-28.351h1.717l-18.112 51.826-1.525.015-16.16-43.668-16.16 43.668-1.524-.011-18.382-51.83z"/></g></svg>