<svg enable-background="new 0 0 130 60" height="60" viewBox="0 0 130 60" width="130" xmlns="http://www.w3.org/2000/svg"><g fill="#092a30"><path d="m111.078 4.08-2.267 49.181-6.643-43.623h-20.25l-6.908 43.608-2.002-49.166h-16.897l18.114 51.826 1.523.014 16.16-43.667 16.16 43.667 1.522-.01 18.385-51.83z"/><path d="m28.758 3.271c14.738 0 26.729 11.99 26.729 26.729s-11.99 26.73-26.729 26.73c-14.74 0-26.73-11.991-26.73-26.73s11.99-26.729 26.73-26.729m0 51.839c8.262 0 14.984-6.723 14.984-14.985s-6.722-14.984-14.984-14.984c-8.264 0-14.986 6.722-14.986 14.984s6.722 14.985 14.986 14.985"/></g></svg>