<svg enable-background="new 0 0 130 60" height="60" viewBox="0 0 130 60" width="130" xmlns="http://www.w3.org/2000/svg"><g fill="#092a30"><path d="m73.242 4.08 4.86 42.12 13.664-36.562h17.115l2.43 37.372 15.294-42.93h1.717l-18.113 51.839h-1.523l-16.161-43.667-16.16 43.667h-1.523l-18.383-51.839z"/><path d="m28.408 3.27c14.74 0 26.73 11.991 26.73 26.73s-11.99 26.73-26.73 26.73c-14.738 0-26.728-11.991-26.728-26.73s11.99-26.73 26.728-26.73m10.125 11.745c-8.262 0-14.984 6.723-14.984 14.985 0 8.263 6.723 14.985 14.984 14.985 8.264 0 14.986-6.722 14.986-14.985.001-8.262-6.722-14.985-14.986-14.985"/></g></svg>