<svg enable-background="new 0 0 130 60" height="60" viewBox="0 0 130 60" width="130" xmlns="http://www.w3.org/2000/svg"><g fill="#092a30"><path d="m111.539 4.08-4.859 42.12-13.664-36.562h-17.118l-2.429 37.372-15.293-42.93h-1.717l18.111 51.84h1.526l16.16-43.668 16.16 43.668h1.523l18.383-51.84z"/><path d="m55.139 30c0 14.738-11.99 26.729-26.73 26.729-14.739 0-26.729-11.991-26.729-26.729 0-14.739 11.99-26.73 26.729-26.73s26.73 11.991 26.73 26.73m-51.84 0c0 8.263 6.723 14.984 14.984 14.984 8.264 0 14.986-6.722 14.986-14.984 0-8.264-6.723-14.985-14.986-14.985-8.262 0-14.984 6.721-14.984 14.985"/></g></svg>