<svg height="57" viewBox="0 0 253 57" width="253" xmlns="http://www.w3.org/2000/svg" xmlns:xlink="http://www.w3.org/1999/xlink"><mask id="a" fill="#fff"><path d="m0 56.872h252.661v-56.872h-252.661z" fill="#fff" fill-rule="evenodd"/></mask><g fill="#fff500" fill-rule="evenodd"><path d="m143.7548 28.4356c0-2.776-1.852-4.627-4.166-4.627-2.313 0-4.165 1.851-4.165 4.627 0 2.777 1.852 4.629 4.165 4.629 2.314 0 4.166-1.852 4.166-4.629m.925 0c0 3.317-2.237 5.554-5.091 5.554s-5.09-2.237-5.09-5.554c0-3.316 2.236-5.553 5.09-5.553s5.091 2.237 5.091 5.553"/><path d="m157.561 30.2872c-.463 1.713-2.083 3.702-4.705 3.702-2.854 0-5.091-2.236-5.091-5.554 0-3.316 2.237-5.552 5.091-5.552 2.7 0 4.242 2.005 4.705 3.625h-1.003c-.309-.849-1.311-2.7-3.702-2.7-2.314 0-4.165 1.851-4.165 4.627 0 2.778 1.851 4.629 4.165 4.629 2.468 0 3.471-2.006 3.702-2.777z"/><path d="m161.0312 23.0372h6.788v.925h-5.862v4.012h5.553v.924h-5.553v4.012h5.862v.925h-6.788z"/><path d="m177.4599 29.9786-2.237-5.939h-.308l-2.237 5.939zm-3.085-6.941h1.388l4.088 10.797h-.926l-1.111-2.93h-5.491l-1.111 2.93h-.925z"/><path d="m182.704 23.0372h1.697l5.323 9.718h.308v-9.718h.925v10.798h-1.696l-5.323-9.719h-.308v9.719h-.926z"/><path d="m198.4384 23.0372h.972l2.453 9.873h.324l2.499-9.873h1.543l2.499 9.873h.324l2.452-9.873h.973l-2.7 10.798h-1.775l-2.391-9.486h-.308l-2.391 9.486h-1.774z"/><path d="m215.561 33.835h.925v-10.798h-.925z" mask="url(#a)"/><path d="m220.6518 23.0372h1.697l5.322 9.718h.309v-9.718h.925v10.798h-1.697l-5.322-9.719h-.308v9.719h-.926z" mask="url(#a)"/><path d="m236.541 32.9102c2.545 0 4.242-1.697 4.242-4.475 0-2.776-1.697-4.473-4.242-4.473h-2.545v8.948zm-3.471-9.873h3.471c2.931 0 5.168 2.236 5.168 5.398 0 3.163-2.237 5.4-5.168 5.4h-3.471z" mask="url(#a)"/><path d="m245.7192 30.6729c0 1.234 1.157 2.392 3.085 2.392 2.005 0 2.931-.926 2.931-2.083 0-1.08-.694-1.728-2.144-1.975l-1.712-.293c-1.929-.324-2.854-1.203-2.854-2.823 0-1.697 1.311-3.008 3.625-3.008 2.468 0 3.934 1.466 3.934 3.316h-.926c0-1.311-1.08-2.39-3.008-2.39-1.774 0-2.7.925-2.7 2.082 0 1.08.694 1.681 2.082 1.928l1.559.278c2.144.386 3.069 1.264 3.069 2.885 0 1.697-1.311 3.007-3.856 3.007-2.468 0-4.011-1.542-4.011-3.316z" mask="url(#a)"/><path d="m28.436 4.5499c-13.171 0-23.886 10.715-23.886 23.886s10.715 23.886 23.886 23.886 23.886-10.715 23.886-23.886-10.715-23.886-23.886-23.886m0 52.322c-15.68 0-28.436-12.757-28.436-28.436 0-15.68 12.756-28.436 28.436-28.436s28.436 12.756 28.436 28.436c0 15.679-12.756 28.436-28.436 28.436" mask="url(#a)"/><path d="m128.6005.8614-15.336 43.947-13.961-38.034h-7.756l-14.242 38.034-15.056-43.947h-5.049l19.268 55.134 1.622.014 17.191-46.454 17.192 46.454 1.62-.01 19.556-55.138z" mask="url(#a)"/></g></svg>