<svg enable-background="new 0 0 130 60" height="60" viewBox="0 0 130 60" width="130" xmlns="http://www.w3.org/2000/svg"><g fill="#092a30"><path d="m116.043 4.08-8.91 45.36-9.833-39.803h-8.797l-14.58 39.803-10.53-45.36h-7.289l18.111 51.839h1.524l16.159-43.667 16.163 43.667h1.522l18.383-51.839z"/><path d="m47.651 11.098c10.422 10.422 10.422 27.38 0 37.804-10.423 10.421-27.382 10.421-37.804 0-10.42-10.423-10.42-27.381 0-37.804 10.423-10.422 27.382-10.422 37.804 0m-36.657 36.657c7.738 7.737 20.328 7.737 28.064 0 7.738-7.738 7.738-20.328 0-28.065-7.736-7.737-20.326-7.737-28.064 0-7.737 7.737-7.737 20.327 0 28.065"/></g></svg>