<svg enable-background="new 0 0 130 60" height="60" viewBox="0 0 130 60" width="130" xmlns="http://www.w3.org/2000/svg"><g fill="#092a30"><path d="m47.65 48.901c-10.422 10.422-27.381 10.422-37.803 0-10.42-10.422-10.42-27.38 0-37.803 10.422-10.421 27.381-10.421 37.803 0 10.423 10.423 10.423 27.381 0 37.803m-36.656-36.656c-7.737 7.738-7.737 20.328 0 28.066 7.736 7.737 20.328 7.737 28.064 0 7.738-7.737 7.738-20.328 0-28.066-7.736-7.738-20.326-7.738-28.064 0"/><path d="m126.247 4.081-19.227 38.896-14.361-33.339h-1.518l-17.332 33.323-15.991-38.88h-1.714l18.111 51.825 1.524.015 16.16-43.669 16.162 43.669 1.522-.011 18.383-51.829z"/></g></svg>