<svg height="31" viewBox="0 0 31 31" width="31" xmlns="http://www.w3.org/2000/svg"><g fill="none" fill-rule="evenodd"><path d="M29.75 15.25c0 8.008-6.492 14.5-14.5 14.5-8.009 0-14.5-6.492-14.5-14.5S7.241.75 15.25.75c8.008 0 14.5 6.492 14.5 14.5z" stroke="#d8d8d8" stroke-width="1.5"/><path d="M19.173 1.292l-.219.16-2.539 1.673s-.57-.31-1.183-.31c-.356 0-.726.104-1.008.434l-.767.896.06.925-.508.598-1.037.153.356-1.307-.914-.136-.944 1.08 1.284.419.15.627-.5.946-.34.073-1.178-.16c-.03.149-.49 1.53-.4 1.56.087.03.746.21.746.21l1.014-.27.36-.865 1.116-.241.257-.207 1.016 1.195.358.687.591-.476s-1.627-1.384-1.184-1.384c.092 0 .272.059.575.202.413.197.71.26.922.26.395 0 .501-.219.537-.219.027 0 .013.126.053.57.09 1.004-.606 1.525-.427 1.525.061 0 .221-.06.546-.18l1.284-.479 1.136.66v.954s-.135.173-.672.173c-.269 0-.639-.043-1.142-.173-.623-.16-.967-.345-1.128-.345-.035 0-.06.008-.08.027-.089.157.102.897-.359.897-.134 0-.324-.063-.592-.22-1.314-.778-1.285-.06-1.314-.778l-.03-.716-1.553-.12-1.763.24-.852.687-1.329.886-.657 1.264.508 4.516 4.152 2.954 1.076-.271.806 2.3-.448.896 1.215 1.493.906 1.106 1.442-.12 2.888-1.972 1.554-4.39s2.3-3.407 2.21-3.407c-.089 0-2.957-.268-2.957-.268l-1.97-3.764s.01-.088.076-.088c.04 0 .1.032.191.133.74.828 2.382 2.92 2.45 2.942l.003.001c.133 0 3.283-2.002 3.283-2.002s-2.629-.896-2.658-.986c-.025-.072-1.18-.939-.747-.939.107 0 .312.053.657.185 1.344.515 1.536.595 1.556.605a29.3 29.3 0 011.344-.05c.164 0 .288.005.325.02.15.06 1.762.79 1.762.79l.57 1.63s.353 1.988.627 1.988c.124 0 .23-.402.282-1.57l.165-3.764.918.292a14.527 14.527 0 00-9.928-9.656m-7.614 9.827l.132.01c.265.965 1.033 1.16 1.531 1.183.001 0 .13.026.428.203.497.294.927.43 1.355.43.12 0 .834-.025 1.334-.592.226.054.438.096.64.126l1.96 3.742.378.721.81.076.511.048c-.282.425-.583.872-.867 1.293l-.108.16-.063.18-1.39 3.928-2.156 1.472-.264.022-.402-.493-.605-.742.015-.03.284-.567-.21-.6-.806-2.3-.454-1.292-1.328.334-.404.102-3.04-2.164-.383-3.395.27-.516 1.007-.674.056-.037.052-.042.526-.425zm7.865-8.18a12.928 12.928 0 017.322 6.23l-.06 1.421-.01.197a82.853 82.853 0 00-1.342-.598c-.268-.107-.516-.127-.882-.127-.328 0-.785.02-1.094.034l-1.269-.49c-.527-.202-.874-.284-1.194-.284a1.62 1.62 0 00-1.009.342v-.617l-.748-.434-1.135-.658-.612-.355-.103.038c-.21-1.306-1.439-1.322-1.494-1.322-.184 0-.426.034-.68.163a2.161 2.161 0 01-.136-.06 5.546 5.546 0 00-.469-.2l.15-.177.394-.462-.039-.605-.02-.317.29-.34c.145.015.334.083.416.125l.79.428.75-.494z" fill="#d8d8d8"/></g></svg>