<svg height="60" viewBox="0 0 130 60" width="130" xmlns="http://www.w3.org/2000/svg"><path d="M9.851 11.1C20.273.678 37.23.678 47.652 11.1s10.422 27.38 0 37.802-27.379 10.422-37.801 0C-.573 38.479-.573 21.521 9.851 11.1m8.589 1.145c-7.736 7.737-7.736 20.327 0 28.064 7.738 7.738 20.328 7.738 28.064.001 7.738-7.738 7.738-20.328 0-28.065-7.735-7.737-20.325-7.737-28.064 0M57.823 4.08L77.05 42.976 91.409 9.638h1.52l17.33 33.322 15.992-38.88h1.715l-18.112 51.826-1.525.015-16.16-43.668-16.16 43.668-1.524-.011L56.103 4.08z" fill="#092a30"/></svg>