<svg height="60" viewBox="0 0 130 60" width="130" xmlns="http://www.w3.org/2000/svg"><path d="M28.757 56.721c-14.74 0-26.73-11.99-26.73-26.729s11.99-26.73 26.73-26.73c14.738 0 26.73 11.991 26.73 26.73s-11.992 26.729-26.73 26.729m0-51.84c-10.941 0-19.846 8.902-19.846 19.846 0 10.942 8.904 19.845 19.846 19.845s19.844-8.902 19.844-19.845S39.698 4.881 28.757 4.881m97.496-.809L108.81 42.966 92.667 9.629h-1.52L75.009 42.952 57.825 4.072H56.11l18.112 51.826 1.525.014 16.16-43.667 16.16 43.667 1.524-.01 18.381-51.83z" fill="#092a30"/></svg>