<svg height="60" viewBox="0 0 130 60" width="130" xmlns="http://www.w3.org/2000/svg"><path d="M47.65 48.901c-10.422 10.422-27.381 10.422-37.803 0-10.42-10.422-10.42-27.38 0-37.803C20.269.677 37.228.677 47.65 11.098c10.423 10.423 10.423 27.381 0 37.803M10.994 12.245c-7.737 7.738-7.737 20.328 0 28.066 7.736 7.737 20.328 7.737 28.064 0 7.738-7.737 7.738-20.328 0-28.066-7.736-7.738-20.326-7.738-28.064 0m115.253-8.164L107.02 42.977 92.659 9.638h-1.518L73.809 42.961 57.818 4.081h-1.714l18.111 51.825 1.524.015 16.16-43.669 16.162 43.669 1.522-.011 18.383-51.829z" fill="#092a30"/></svg>