<svg height="60" viewBox="0 0 130 60" width="130" xmlns="http://www.w3.org/2000/svg"><path d="M116.043 4.08l-8.91 45.36L97.3 9.637h-8.797L73.923 49.44 63.393 4.08h-7.289l18.111 51.839h1.524l16.159-43.667 16.163 43.667h1.522L127.966 4.08zm-68.392 7.018c10.422 10.422 10.422 27.38 0 37.804-10.423 10.421-27.382 10.421-37.804 0-10.42-10.423-10.42-27.381 0-37.804C20.27.676 37.229.676 47.651 11.098M10.994 47.755c7.738 7.737 20.328 7.737 28.064 0 7.738-7.738 7.738-20.328 0-28.065-7.736-7.737-20.326-7.737-28.064 0-7.737 7.737-7.737 20.327 0 28.065" fill="#092a30"/></svg>