<svg height="60" viewBox="0 0 130 60" width="130" xmlns="http://www.w3.org/2000/svg"><path d="M47.652 48.901c-10.422 10.422-27.381 10.422-37.803 0s-10.422-27.38 0-37.803C20.271.677 37.23.677 47.652 11.098c10.422 10.423 10.422 27.381 0 37.803M10.996 12.245c-5.844 5.842-5.844 15.35 0 21.193 5.842 5.843 15.348 5.843 21.191 0 5.842-5.843 5.842-15.351 0-21.193-5.843-5.843-15.349-5.843-21.191 0m115.252-8.164l-20.951 28.365L92.66 9.638h-1.519L71.494 32.431 57.82 4.081h-1.716l18.113 51.826 1.523.014L91.9 12.252l16.162 43.669 1.522-.011 18.383-51.829z" fill="#092a30"/></svg>