<svg height="60" viewBox="0 0 130 60" width="130" xmlns="http://www.w3.org/2000/svg"><path d="M111.539 4.08L106.68 46.2 93.016 9.638H75.898L73.469 47.01 58.176 4.08h-1.717L74.57 55.92h1.526l16.16-43.668 16.16 43.668h1.523l18.383-51.84zM55.139 30c0 14.738-11.99 26.729-26.73 26.729C13.67 56.729 1.68 44.738 1.68 30c0-14.739 11.99-26.73 26.729-26.73S55.139 15.261 55.139 30m-51.84 0c0 8.263 6.723 14.984 14.984 14.984 8.264 0 14.986-6.722 14.986-14.984 0-8.264-6.723-14.985-14.986-14.985-8.262 0-14.984 6.721-14.984 14.985" fill="#092a30"/></svg>