<svg height="60" viewBox="0 0 130 60" width="130" xmlns="http://www.w3.org/2000/svg"><path d="M68.465 4.08l9.344 43.74L91.473 9.638h12.256l7.291 38.992 15.292-44.55h1.717l-18.113 51.84h-1.523L92.232 12.252 76.072 55.92h-1.523L56.166 4.08zm-39.766-.81c14.738 0 26.729 11.991 26.729 26.73s-11.99 26.73-26.729 26.73c-14.74 0-26.73-11.992-26.73-26.73 0-14.739 11.99-26.73 26.73-26.73m5.264 6.885c-10.941 0-19.844 8.902-19.844 19.845s8.902 19.844 19.844 19.844c10.943.001 19.846-8.901 19.846-19.844 0-10.942-8.903-19.845-19.846-19.845" fill="#092a30"/></svg>