<svg height="60" viewBox="0 0 130 60" width="130" xmlns="http://www.w3.org/2000/svg"><path d="M9.85 11.1C20.272.678 37.231.678 47.653 11.1s10.422 27.38 0 37.802-27.381 10.422-37.803 0-10.422-27.381 0-37.802m15.464 1.145c-5.844 5.843-5.844 15.35 0 21.191 5.842 5.843 15.35 5.843 21.191.001 5.842-5.843 5.842-15.35 0-21.192s-15.349-5.843-21.191 0M57.822 4.08l20.953 28.365L91.41 9.639h1.52l19.646 22.792L126.25 4.08h1.717l-18.112 51.826-1.525.015-16.16-43.668-16.16 43.668-1.524-.011L56.104 4.08z" fill="#092a30"/></svg>