<svg height="60" viewBox="0 0 130 60" width="130" xmlns="http://www.w3.org/2000/svg"><path d="M28.765 56.841C13.965 56.841 1.924 44.8 1.924 30S13.965 3.159 28.765 3.159 55.605 15.2 55.605 30s-12.041 26.841-26.84 26.841m0-49.615C16.206 7.226 5.991 17.442 5.991 30s10.215 22.774 22.773 22.774S51.538 42.558 51.538 30 41.323 7.226 28.765 7.226m94.546-3.253l-14.476 41.481-13.179-35.9h-7.321l-13.442 35.9L60.682 3.973h-4.767l18.188 52.041 1.531.014L91.86 12.18l16.227 43.848 1.531-.011 18.459-52.044z" fill="#092a30"/></svg>