<svg height="57" viewBox="0 0 253 57" width="253" xmlns="http://www.w3.org/2000/svg"><mask id="a" fill="#fff"><path d="M0 56.872h252.661V0H0z" fill="#fff" fill-rule="evenodd"/></mask><g fill="#fff500" fill-rule="evenodd"><path d="M143.755 28.436c0-2.776-1.852-4.627-4.166-4.627-2.313 0-4.165 1.85-4.165 4.627 0 2.777 1.852 4.629 4.165 4.629 2.314 0 4.166-1.852 4.166-4.63m.925 0c0 3.318-2.237 5.555-5.091 5.555s-5.09-2.237-5.09-5.554c0-3.316 2.236-5.553 5.09-5.553s5.09 2.237 5.09 5.553m12.882 1.851c-.463 1.713-2.083 3.702-4.705 3.702-2.854 0-5.091-2.236-5.091-5.554 0-3.316 2.237-5.552 5.091-5.552 2.7 0 4.242 2.005 4.705 3.625h-1.003c-.309-.849-1.311-2.7-3.702-2.7-2.314 0-4.165 1.851-4.165 4.627 0 2.778 1.851 4.63 4.165 4.63 2.468 0 3.471-2.007 3.702-2.778zm3.47-7.25h6.788v.925h-5.862v4.012h5.553v.924h-5.553v4.012h5.862v.925h-6.788zm16.429 6.942l-2.237-5.94h-.308l-2.237 5.94zm-3.085-6.941h1.388l4.088 10.797h-.926l-1.111-2.93h-5.491l-1.111 2.93h-.925zm8.329-.001h1.697l5.323 9.718h.308v-9.718h.925v10.798h-1.696l-5.323-9.719h-.308v9.72h-.926zm15.734 0h.972l2.453 9.873h.324l2.5-9.873h1.542l2.5 9.873h.323l2.452-9.873h.973l-2.7 10.798h-1.775l-2.39-9.486h-.309l-2.39 9.486h-1.775z"/><path d="M215.561 33.835h.925V23.037h-.925zm5.091-10.798h1.697l5.322 9.718h.309v-9.718h.925v10.798h-1.697l-5.322-9.719h-.308v9.72h-.926zm15.889 9.873c2.545 0 4.242-1.697 4.242-4.475 0-2.776-1.697-4.473-4.242-4.473h-2.545v8.948zm-3.471-9.873h3.471c2.931 0 5.168 2.236 5.168 5.398 0 3.163-2.237 5.4-5.168 5.4h-3.471zm12.65 7.636c0 1.234 1.156 2.392 3.084 2.392 2.005 0 2.931-.926 2.931-2.083 0-1.08-.694-1.728-2.144-1.975l-1.712-.293c-1.929-.324-2.854-1.203-2.854-2.823 0-1.697 1.311-3.008 3.625-3.008 2.468 0 3.934 1.466 3.934 3.316h-.926c0-1.311-1.08-2.39-3.008-2.39-1.774 0-2.7.925-2.7 2.082 0 1.08.694 1.68 2.082 1.928l1.56.278c2.143.386 3.068 1.264 3.068 2.885 0 1.697-1.31 3.007-3.856 3.007-2.468 0-4.01-1.542-4.01-3.316zM28.436 4.55C15.265 4.55 4.55 15.265 4.55 28.436s10.715 23.886 23.886 23.886 23.886-10.715 23.886-23.886S41.607 4.55 28.436 4.55m0 52.322C12.756 56.872 0 44.115 0 28.436 0 12.756 12.756 0 28.436 0s28.436 12.756 28.436 28.436c0 15.679-12.756 28.436-28.436 28.436M128.6.861l-15.335 43.947L99.304 6.774h-7.756L77.306 44.808 62.25.861H57.2l19.27 55.134 1.622.014L95.28 9.555l17.193 46.454 1.62-.01L133.65.861z" mask="url(#a)"/></g></svg>