<svg height="60" viewBox="0 0 130 60" width="130" xmlns="http://www.w3.org/2000/svg"><path d="M115.729 4.08l-9.342 43.74L92.723 9.638H80.467L73.176 48.63 57.883 4.08h-1.717l18.111 51.84h1.526l16.16-43.667 16.16 43.667h1.523l18.383-51.84zM55.428 30c0 14.738-11.99 26.729-26.729 26.729-14.74 0-26.73-11.991-26.73-26.729 0-14.739 11.99-26.73 26.73-26.73 14.739 0 26.729 11.991 26.729 26.73m-51.84 0c0 10.941 8.902 19.845 19.846 19.845S43.279 40.941 43.279 30c0-10.942-8.904-19.846-19.846-19.846C12.49 10.154 3.588 19.058 3.588 30" fill="#092a30"/></svg>