<svg height="60" viewBox="0 0 130 60" width="130" xmlns="http://www.w3.org/2000/svg"><path d="M115.937 4.08l-7.127 49.181L97.306 9.638h-10.53L75.009 53.246 68.147 4.08H56.11l18.112 51.84h1.525l16.16-43.667 16.16 43.667h1.524l18.381-51.84zm-87.18-.809c14.738 0 26.73 11.99 26.73 26.729s-11.992 26.73-26.73 26.73c-14.74 0-26.73-11.991-26.73-26.73s11.99-26.729 26.73-26.729m0 51.839c10.941 0 19.844-8.902 19.844-19.845s-8.902-19.846-19.844-19.846S8.911 24.322 8.911 35.266c0 10.942 8.904 19.844 19.846 19.844" fill="#092a30"/></svg>