<svg height="60" viewBox="0 0 130 60" width="130" xmlns="http://www.w3.org/2000/svg"><path d="M73.242 4.08l4.86 42.12L91.766 9.638h17.115l2.43 37.372 15.294-42.93h1.717l-18.113 51.839h-1.523L92.525 12.252l-16.16 43.667h-1.523L56.459 4.08zm-44.834-.81c14.74 0 26.73 11.991 26.73 26.73s-11.99 26.73-26.73 26.73C13.67 56.73 1.68 44.739 1.68 30S13.67 3.27 28.408 3.27m10.125 11.745c-8.262 0-14.984 6.723-14.984 14.985 0 8.263 6.723 14.985 14.984 14.985 8.264 0 14.986-6.722 14.986-14.985.001-8.262-6.722-14.985-14.986-14.985" fill="#092a30"/></svg>