<svg height="60" viewBox="0 0 130 60" width="130" xmlns="http://www.w3.org/2000/svg"><path d="M111.078 4.08l-2.267 49.181-6.643-43.623h-20.25L75.01 53.246 73.008 4.08H56.111l18.114 51.826 1.523.014 16.16-43.667 16.16 43.667 1.522-.01 18.385-51.83zm-82.32-.809c14.738 0 26.729 11.99 26.729 26.729s-11.99 26.73-26.729 26.73c-14.74 0-26.73-11.991-26.73-26.73s11.99-26.729 26.73-26.729m0 51.839c8.262 0 14.984-6.723 14.984-14.985S37.02 25.141 28.758 25.141c-8.264 0-14.986 6.722-14.986 14.984S20.494 55.11 28.758 55.11" fill="#092a30"/></svg>