<svg height="60" viewBox="0 0 130 60" width="130" xmlns="http://www.w3.org/2000/svg"><path d="M111.065 4.08l-3.936 45.36-9.835-39.802H80.285L73.919 49.44 63.389 4.08h-7.29l18.112 51.84h1.524l16.161-43.667 16.16 43.667h1.522l18.383-51.84zm-63.407 7.019c10.423 10.422 10.422 27.38 0 37.802s-27.381 10.422-37.803.001c-10.421-10.423-10.421-27.381 0-37.803C20.277.677 37.236.677 47.658 11.099M11.002 47.756c5.9 5.899 15.5 5.899 21.4 0 5.9-5.9 5.9-15.501 0-21.4-5.899-5.9-15.5-5.9-21.4 0s-5.899 15.499 0 21.4" fill="#092a30"/></svg>