<svg height="60" viewBox="0 0 130 60" width="130" xmlns="http://www.w3.org/2000/svg"><path d="M28.758 56.721c-14.739 0-26.73-11.99-26.73-26.729s11.991-26.73 26.73-26.73c14.738 0 26.729 11.991 26.729 26.73S43.496 56.721 28.758 56.721m0-51.84c-8.263 0-14.985 6.723-14.985 14.985s6.723 14.985 14.985 14.985 14.984-6.723 14.984-14.985S37.021 4.881 28.758 4.881m97.497-.809l-17.443 28.365L92.668 9.629h-1.52L75.01 32.421 57.827 4.072h-1.716l18.113 51.826 1.524.014 16.16-43.667 16.16 43.667 1.523-.01 18.383-51.83z" fill="#092a30"/></svg>